# xmcd
#
# Track frame offsets:
#	150
#	1956
#	18500
#	35217
#	48199
#	62893
#	84223
#	103532
#	121407
#	134398
#	173172
#	191769
#	209778
#	232392
#	255708
#
# Disc length: 3772 seconds
#
# Revision: 0
# Processed by: cddbd v1.4PL0 Copyright (c) Steve Scherf et al.
# Submitted via: EasyCDDAExtractor 4.5.2.1
#
DISCID=d80eba0f
DTITLE=Kieran Kane and Kevin Welch - 11/12/13
DYEAR=2000
DGENRE=Country
TTITLE0=Intro
TTITLE1=Something "Bout You
TTITLE2=Eight More Miles
TTITLE3=While I Was Loving You
TTITLE4=Four Questions
TTITLE5=Train To Birmingham
TTITLE6=Table Top Dancer
TTITLE7=Life Down Here On Earth
TTITLE8=If I Could Be There
TTITLE9=Some Kind Of Paradise
TTITLE10=Ramblin' Man
TTITLE11=Sam's Town
TTITLE12=Town This Size
TTITLE13=Wilsons Tracks
TTITLE14=When We're Gone, Long Gone
EXTD=
EXTT0=
EXTT1=
EXTT2=
EXTT3=
EXTT4=
EXTT5=
EXTT6=
EXTT7=
EXTT8=
EXTT9=
EXTT10=
EXTT11=
EXTT12=
EXTT13=
EXTT14=
PLAYORDER=
